<?xml version="1.0" standalone="no"?>
<!DOCTYPE svg PUBLIC "-//W3C//DTD SVG 20010904//EN"
 "http://www.w3.org/TR/2001/REC-SVG-20010904/DTD/svg10.dtd">
<svg version="1.0" xmlns="http://www.w3.org/2000/svg"
 width="700.000000pt" height="700.000000pt" viewBox="0 0 700.000000 700.000000"
 preserveAspectRatio="xMidYMid meet">
<metadata>
Created by potrace 1.14, written by Peter Selinger 2001-2017
</metadata>
<g transform="translate(0.000000,700.000000) scale(0.100000,-0.100000)"
fill="#000000" stroke="none">
<path d="M3280 6993 c-19 -1 -84 -8 -145 -13 -507 -50 -1041 -233 -1486 -510
-376 -235 -738 -575 -997 -937 -349 -488 -560 -1043 -634 -1668 -28 -236 -15
-673 28 -930 147 -892 627 -1687 1349 -2232 528 -399 1153 -637 1823 -694 178
-15 549 -7 722 15 660 86 1269 349 1789 773 143 117 375 351 492 498 428 535
673 1119 761 1815 17 141 17 640 0 780 -32 250 -82 477 -152 695 -358 1099
-1245 1956 -2360 2279 -216 62 -455 105 -705 126 -111 9 -403 11 -485 3z m613
-857 c394 -64 717 -183 1032 -379 212 -132 465 -353 630 -548 271 -323 461
-721 545 -1139 44 -223 54 -325 54 -575 0 -239 -9 -339 -49 -560 -126 -685
-493 -1276 -907 -1465 -95 -43 -179 -61 -279 -61 -236 0 -470 113 -690 331
-175 174 -309 368 -461 668 l-87 172 -42 -72 c-131 -227 -303 -437 -443 -542
-298 -224 -623 -112 -746 257 -49 144 -64 259 -63 487 0 299 26 480 95 650
129 317 367 512 629 514 48 1 90 -2 94 -6 7 -6 64 -259 65 -285 0 -8 -13 -7
-47 3 -25 8 -74 14 -108 14 -213 0 -405 -269 -445 -625 -15 -137 -13 -438 5
-538 34 -194 95 -289 203 -312 128 -27 398 268 592 649 39 74 70 142 70 150 0
8 -25 97 -55 198 -103 342 -201 758 -239 1013 -47 315 -64 752 -36 970 45 367
177 569 385 591 178 19 344 -82 430 -261 81 -167 111 -376 102 -709 -10 -402
-72 -812 -233 -1539 l-56 -258 47 -117 c176 -433 407 -784 630 -962 123 -98
297 -170 411 -170 222 0 515 277 704 665 211 435 300 978 239 1470 -99 804
-573 1467 -1304 1826 -539 264 -1143 318 -1720 154 -812 -231 -1441 -879
-1650 -1699 -167 -660 -48 -1363 328 -1926 326 -489 847 -850 1428 -990 347
-83 737 -87 1130 -10 138 27 160 17 184 -87 34 -139 22 -152 -170 -187 -255
-46 -310 -51 -585 -51 -303 0 -408 12 -656 75 -549 139 -1066 468 -1416 900
-576 713 -746 1671 -451 2548 174 518 537 1001 988 1314 354 246 770 407 1180
457 50 6 104 13 120 15 76 10 525 -3 618 -18z"/>
<path d="M3575 5386 c-31 -41 -57 -113 -82 -226 -15 -72 -18 -131 -17 -390 0
-333 12 -460 74 -804 28 -154 105 -494 114 -504 5 -5 19 62 66 313 89 484 124
813 118 1115 -4 166 -9 222 -27 295 -38 156 -99 235 -183 235 -30 0 -42 -6
-63 -34z"/>
</g>
</svg>
